<?xml version="1.0" encoding="utf-8"?>
<svg width="100%" height="100%" viewBox="0 0 16 15.999882" version="1.1" xmlns:xlink="http://www.w3.org/1999/xlink" xmlns="http://www.w3.org/2000/svg">
  <g id="axcoin_dark_demo1">
    <path d="M15.6418 7.99994C15.6418 8.50422 15.5933 8.9988 15.4963 9.49337C15.3993 9.98795 15.2539 10.4631 15.0599 10.9286C14.866 11.3941 14.6332 11.8305 14.352 12.2475C14.0707 12.6645 13.7604 13.0524 13.4016 13.4015C13.0428 13.7603 12.6646 14.0707 12.2476 14.3519C11.8306 14.6331 11.3942 14.8659 10.9287 15.0598C10.4632 15.2538 9.98804 15.3992 9.49345 15.4962C8.99886 15.5932 8.5043 15.6417 8 15.6417C7.4957 15.6417 7.00114 15.5932 6.50655 15.4962C6.01196 15.3992 5.53679 15.2538 5.07129 15.0598C4.60579 14.8659 4.16941 14.6331 3.75242 14.3519C3.33543 14.0707 2.94753 13.7603 2.5984 13.4015C2.23959 13.0427 1.92925 12.6645 1.64801 12.2475C1.36677 11.8305 1.13404 11.3941 0.940075 10.9286C0.746109 10.4631 0.60065 9.98795 0.503668 9.49337C0.406685 8.9988 0.358209 8.50421 0.358209 7.99994C0.358209 7.49567 0.406685 7.00108 0.503668 6.50651C0.60065 6.01193 0.746109 5.53674 0.940075 5.07126C1.13404 4.60577 1.36677 4.16938 1.64801 3.75238C1.92925 3.33538 2.23956 2.94747 2.5984 2.59835C2.9572 2.23954 3.33543 1.92921 3.75242 1.64798C4.16941 1.36676 4.60582 1.13401 5.07129 0.94006C5.53679 0.746109 6.01196 0.600636 6.50655 0.503668C7.00114 0.406685 7.4957 0.358209 8 0.358209C8.5043 0.358209 8.99886 0.4067 9.49345 0.503668C9.98804 0.60065 10.4632 0.746109 10.9287 0.94006C11.3942 1.13401 11.8306 1.36676 12.2476 1.64798C12.6646 1.92921 13.0525 2.23954 13.4016 2.59835C13.7604 2.95716 14.0707 3.33537 14.352 3.75238C14.6332 4.16937 14.866 4.60577 15.0599 5.07126C15.2539 5.53674 15.3993 6.01193 15.4963 6.50651C15.5933 7.00108 15.6418 7.49567 15.6418 7.99994L15.6418 7.99994Z" id="Group" fill="currentColor" fill-opacity="0.3" fill-rule="evenodd" stroke="none" />
    <path d="M16 7.99994C16 8.52424 15.9493 9.04502 15.8478 9.5623C15.7474 10.0745 15.595 10.5758 15.3906 11.0664C15.1857 11.558 14.9385 12.0184 14.649 12.4478C14.3352 12.913 14.0027 13.3165 13.6514 13.6583C13.2851 14.0246 12.884 14.3548 12.4479 14.6489C12.0185 14.9385 11.558 15.1857 11.0665 15.3905C10.5758 15.5949 10.0744 15.7473 9.56236 15.8477C9.04507 15.9492 8.52428 15.9999 8 15.9999C7.4758 15.9999 6.95502 15.9492 6.43764 15.8477C5.92549 15.7473 5.42412 15.5949 4.93352 15.3905C4.44204 15.1857 3.98157 14.9385 3.55213 14.6489C3.08704 14.3352 2.68355 14.0027 2.34167 13.6513C1.97534 13.285 1.64513 12.8839 1.35103 12.4478C1.06148 12.0185 0.814272 11.558 0.609424 11.0664C0.405011 10.5758 0.252588 10.0745 0.152154 9.5623C0.0507178 9.04502 -2.84679e-08 8.52423 0 7.99994C0 7.47565 0.0507178 6.95486 0.152153 6.43758C0.252588 5.9254 0.405012 5.42403 0.609424 4.93348C0.814256 4.44191 1.06146 3.98145 1.35103 3.55208C1.66481 3.08686 1.99733 2.68336 2.34861 2.34161C2.71488 1.9753 3.11605 1.6451 3.55213 1.351C3.98153 1.06141 4.44199 0.814214 4.93351 0.609407C5.42419 0.404964 5.92557 0.252545 6.43763 0.152151C6.95493 0.0507171 7.47571 0 8 0C8.52421 -2.84679e-08 9.04499 0.050717 9.56236 0.152151C10.0745 0.252574 10.5759 0.404991 11.0665 0.609403C11.558 0.814178 12.0184 1.06138 12.4479 1.351C12.913 1.66466 13.3164 1.99718 13.6583 2.34855C14.0247 2.71484 14.3549 3.11602 14.649 3.55208C14.9385 3.98141 15.1857 4.44187 15.3906 4.93348C15.595 5.42403 15.7474 5.9254 15.8478 6.43758C15.9493 6.95486 16 7.47564 16 7.99994L16 7.99994ZM15.2836 7.99994C15.2836 7.52204 15.2373 7.0472 15.1448 6.57544C15.0537 6.11056 14.9151 5.6551 14.7293 5.20904C14.5427 4.76135 14.318 4.34256 14.055 3.95267C13.7866 3.55474 13.4833 3.18657 13.1449 2.84816C12.8374 2.53213 12.4715 2.23106 12.0473 1.94497C11.6573 1.68194 11.2385 1.45719 10.7909 1.27072C10.3448 1.08484 9.88935 0.946331 9.42453 0.855185C8.95267 0.762673 8.47783 0.716418 8 0.716418C7.5221 0.716418 7.04726 0.762674 6.57547 0.855185C6.11071 0.946305 5.65524 1.08481 5.20906 1.27071C4.76145 1.45722 4.34267 1.68197 3.95271 1.94497C3.55477 2.21334 3.1866 2.51672 2.84819 2.8551C2.53226 3.16247 2.23119 3.52833 1.94499 3.95267C1.68202 4.34259 1.45726 4.76138 1.27073 5.20904C1.08486 5.6551 0.946341 6.11056 0.855182 6.57544C0.762673 7.0472 0.716418 7.52204 0.716418 7.99994C0.716418 8.47785 0.762673 8.95268 0.855182 9.42444C0.946341 9.88932 1.08486 10.3448 1.27073 10.7908C1.45728 11.2385 1.68203 11.6573 1.94499 12.0472C2.21336 12.4451 2.51674 12.8133 2.85513 13.1517C3.16263 13.4678 3.52849 13.7688 3.95271 14.0549C4.34271 14.3179 4.76149 14.5427 5.20905 14.7292C5.65517 14.915 6.11064 15.0536 6.57547 15.1447C7.04733 15.2372 7.52217 15.2835 8 15.2835C8.4779 15.2835 8.95274 15.2372 9.42453 15.1447C9.88929 15.0536 10.3448 14.9151 10.7909 14.7292C11.2386 14.5427 11.6573 14.3179 12.0473 14.0549C12.4452 13.7865 12.8134 13.4832 13.1518 13.1448C13.4677 12.8374 13.7688 12.4716 14.055 12.0472C14.318 11.6573 14.5427 11.2385 14.7293 10.7908C14.9151 10.3448 15.0537 9.88932 15.1448 9.42444C15.2373 8.95268 15.2836 8.47785 15.2836 7.99994L15.2836 7.99994Z" id="矢量图" fill="currentColor" fill-rule="evenodd" stroke="none" />
    <g id="编组" transform="translate(3.7185197 4.455436)">
      <path d="M4.27661 6.84656C4.27661 6.84656 0.74665 4.587 0.74665 2.58929C0.74665 1.58074 1.58063 0.756431 2.61829 0.756431C3.34562 0.756431 3.97596 1.16373 4.27658 1.75529C4.58692 1.16373 5.21726 0.756431 5.93487 0.756431C6.96282 0.756431 7.80652 1.57103 7.80652 2.58929C7.80652 4.587 4.27655 6.84656 4.27655 6.84656L4.27661 6.84656ZM8.34964 1.58074C8.21386 1.27041 8.02963 0.998873 7.78719 0.756431C7.54475 0.523682 7.26351 0.339439 6.95321 0.203657C6.62349 0.0678907 6.29377 0 5.93496 0C5.45008 0 4.9652 0.135767 4.55788 0.387901C4.4609 0.446084 4.36392 0.513975 4.27664 0.591558C4.18937 0.523667 4.09238 0.455791 3.9954 0.387901C3.57841 0.135767 3.1032 0 2.61832 0C2.26922 0 1.9298 0.0678907 1.60008 0.203657C1.28975 0.329732 1.00854 0.51399 0.766094 0.756431C0.523652 0.98918 0.339394 1.27041 0.203643 1.58074C0.0678611 1.90076 0 2.24017 0 2.58929C0 2.91901 0.0678907 3.26812 0.203643 3.61724C0.32001 3.90817 0.475176 4.2088 0.678818 4.51911C1.00854 5.004 1.45462 5.50828 2.00739 6.02225C2.92868 6.87565 3.84026 7.4575 3.87903 7.4866L4.11177 7.64176C4.21843 7.70965 4.35421 7.70965 4.45119 7.64176L4.68393 7.4866C4.68393 7.4866 5.63431 6.87564 6.55557 6.02225C7.10834 5.50828 7.55443 5.004 7.88414 4.51911C8.08778 4.20878 8.25266 3.90816 8.35932 3.61724C8.4951 3.26812 8.56296 2.91901 8.56296 2.58929C8.56296 2.24017 8.49507 1.90075 8.35932 1.58074L8.34964 1.58074Z" id="Group" fill="currentColor" fill-rule="evenodd" stroke="none" />
      <path d="M5.93493 0.766124C5.20761 0.766124 4.57727 1.17342 4.27664 1.76498C3.96631 1.17342 3.33597 0.766124 2.61835 0.766124C1.5904 0.766124 0.746709 1.58072 0.746709 2.59898C0.746709 4.5967 4.27667 6.85625 4.27667 6.85625C4.27667 6.85625 7.80663 4.5967 7.80663 2.59898C7.80663 1.59043 6.97265 0.766124 5.93499 0.766124L5.93493 0.766124Z" id="Group" fill="#FFFFFF" fill-opacity="0.8" fill-rule="evenodd" stroke="none" />
    </g>
  </g>
</svg>