<?xml version="1.0" encoding="utf-8"?>
<svg viewBox="0 0 400 400" version="1.1" xmlns:xlink="http://www.w3.org/1999/xlink" xmlns="http://www.w3.org/2000/svg">
  <defs>
    <path d="M0 0L400 0L400 400L0 400L0 0Z" id="path_1" />
    <clipPath id="mask_1">
      <use xlink:href="#path_1" />
    </clipPath>
  </defs>
  <g id="文章">
    <path d="M0 0L400 0L400 400L0 400L0 0Z" id="背景" fill="#FFFFFF" fill-opacity="0" fill-rule="evenodd" stroke="none" />
    <g clip-path="url(#mask_1)">
      <path d="M399.963 200C401.962 323.977 323.977 401.962 200 399.963C76.0233 401.962 -1.96207 323.977 0.0375591 200C-1.96205 76.0233 76.0233 -1.96205 200 0.0375777C323.977 -1.96205 401.962 76.0233 399.963 200L399.963 200Z" id="形状" fill="#8258F5" stroke="none" />
      <path d="M398.963 220.996C392.964 133.013 332.975 79.0228 239.993 80.0226C141.011 78.0229 78.023 141.011 80.0226 239.993C78.023 332.975 133.013 392.964 220.996 398.963C325.976 392.964 392.964 325.976 398.963 220.996L398.963 220.996Z" id="形状" fill="#814EF5" stroke="none" />
      <path d="M396.963 245.991C384.965 192.002 342.973 159.008 279.985 160.008C205.999 159.008 159.008 205.999 160.008 279.985C159.008 341.973 192.002 384.965 245.991 396.963C327.976 382.966 382.966 327.976 396.963 245.991L396.963 245.991Z" id="形状" fill="#7B45F5" stroke="none" />
      <path d="M389.964 275.986C376.967 252.99 352.971 239.993 319.978 239.993C269.987 238.993 238.993 269.987 239.993 319.978C238.993 351.971 252.99 376.967 275.986 389.964C330.975 373.967 373.967 330.975 389.964 275.986L389.964 275.986Z" id="形状" fill="#7741F4" stroke="none" />
      <path d="M284.984 80.0226L149.01 80.0226C137.012 80.0226 127.014 90.0207 127.014 102.018L127.014 109.017L113.016 109.017C101.019 109.017 90.0207 119.015 90.0207 132.013L90.0207 304.98C90.0207 316.978 100.019 327.976 113.016 327.976L247.991 327.976C259.989 327.976 270.987 317.978 270.987 304.98L270.987 297.982L284.984 297.982C296.982 297.982 306.98 287.984 306.98 275.986L306.98 102.018C306.98 90.0207 296.982 80.0226 284.984 80.0226L284.984 80.0226ZM254.99 304.98C254.99 308.98 251.99 312.979 246.991 312.979L113.016 312.979C109.017 312.979 105.018 309.979 105.018 304.98L105.018 132.013C105.018 128.014 108.017 124.014 113.016 124.014L216.558 124.014L255.99 165.517L255.99 304.98L254.99 304.98ZM291.983 275.986C291.983 279.985 288.983 282.984 284.984 282.984L270.987 282.984C270.987 282.984 270.933 205.088 270.667 175.772C269.525 170.081 268.279 168.613 265.922 165.721C249.893 150.133 225.187 125.422 212.801 113.421C210.617 111.561 207.523 108.937 201.552 109.017C184.972 109.017 142.011 109.017 142.011 109.017L142.011 102.018C142.011 98.0192 145.01 95.0198 149.01 95.0198L284.984 95.0198C288.983 95.0198 291.983 98.0192 291.983 102.018L291.983 275.986L291.983 275.986Z" id="形状" fill="#FFFFFF" fill-rule="evenodd" stroke="none" />
      <path d="M205.949 113.02L263.05 170.736L259.554 181.342L198.742 120.531L205.949 113.02ZM202.55 113.02L202.55 178.02L269.55 178.02L269.55 193.02L202.55 193.02L202.55 193.02C202.55 193.02 199.691 193.031 196.641 193.02C191.091 192.909 187.423 188.92 187.55 184.02C187.478 163.92 187.55 113.02 187.55 113.02L202.55 113.02L202.55 113.02Z" id="矩形-联合" fill="#FFFFFF" fill-rule="evenodd" stroke="none" />
      <path d="M136.449 215.02L226.451 215.02Q226.635 215.02 226.819 215.029Q227.003 215.038 227.186 215.056Q227.369 215.074 227.551 215.101Q227.733 215.128 227.914 215.164Q228.095 215.2 228.273 215.245Q228.452 215.289 228.628 215.343Q228.804 215.396 228.977 215.458Q229.151 215.52 229.321 215.591Q229.491 215.661 229.657 215.74Q229.824 215.819 229.986 215.905Q230.148 215.992 230.306 216.087Q230.464 216.181 230.617 216.284Q230.77 216.386 230.918 216.496Q231.066 216.605 231.208 216.722Q231.351 216.839 231.487 216.962Q231.623 217.086 231.754 217.216Q231.884 217.346 232.007 217.483Q232.131 217.619 232.248 217.762Q232.365 217.904 232.474 218.052Q232.584 218.2 232.686 218.353Q232.788 218.506 232.883 218.664Q232.978 218.822 233.065 218.984Q233.151 219.146 233.23 219.313Q233.309 219.479 233.379 219.649Q233.45 219.819 233.512 219.993Q233.574 220.166 233.627 220.342Q233.681 220.518 233.725 220.697Q233.77 220.875 233.806 221.056Q233.842 221.236 233.869 221.419Q233.896 221.601 233.914 221.784Q233.932 221.967 233.941 222.151Q233.95 222.335 233.95 222.519L233.95 222.521Q233.95 222.705 233.941 222.889Q233.932 223.073 233.914 223.256Q233.896 223.439 233.869 223.621Q233.842 223.803 233.806 223.984Q233.77 224.164 233.725 224.343Q233.681 224.522 233.627 224.698Q233.574 224.874 233.512 225.047Q233.45 225.221 233.379 225.391Q233.309 225.561 233.23 225.727Q233.151 225.894 233.065 226.056Q232.978 226.218 232.883 226.376Q232.789 226.534 232.686 226.687Q232.584 226.84 232.474 226.988Q232.365 227.136 232.248 227.278Q232.131 227.421 232.007 227.557Q231.884 227.693 231.754 227.823Q231.623 227.954 231.487 228.077Q231.351 228.201 231.208 228.318Q231.066 228.434 230.918 228.544Q230.77 228.654 230.617 228.756Q230.464 228.858 230.306 228.953Q230.148 229.048 229.986 229.134Q229.824 229.221 229.657 229.3Q229.491 229.379 229.321 229.449Q229.151 229.519 228.977 229.582Q228.804 229.644 228.628 229.697Q228.452 229.75 228.273 229.795Q228.095 229.84 227.914 229.876Q227.733 229.912 227.551 229.939Q227.369 229.966 227.186 229.984Q227.003 230.002 226.819 230.011Q226.635 230.02 226.451 230.02L136.449 230.02Q136.265 230.02 136.081 230.011Q135.897 230.002 135.714 229.984Q135.531 229.966 135.349 229.939Q135.167 229.912 134.986 229.876Q134.806 229.84 134.627 229.795Q134.448 229.75 134.272 229.697Q134.096 229.644 133.923 229.582Q133.749 229.52 133.579 229.449Q133.409 229.379 133.243 229.3Q133.076 229.221 132.914 229.134Q132.752 229.048 132.594 228.953Q132.436 228.858 132.283 228.756Q132.13 228.654 131.982 228.544Q131.834 228.434 131.692 228.318Q131.549 228.201 131.413 228.077Q131.277 227.954 131.146 227.823Q131.016 227.693 130.893 227.557Q130.769 227.42 130.652 227.278Q130.535 227.136 130.426 226.988Q130.316 226.84 130.214 226.687Q130.112 226.534 130.017 226.376Q129.922 226.218 129.836 226.056Q129.749 225.894 129.67 225.727Q129.591 225.561 129.521 225.391Q129.45 225.221 129.388 225.047Q129.326 224.874 129.273 224.698Q129.22 224.522 129.175 224.343Q129.13 224.164 129.094 223.984Q129.058 223.803 129.031 223.621Q129.004 223.439 128.986 223.256Q128.968 223.073 128.959 222.889Q128.95 222.705 128.95 222.521L128.95 222.519Q128.95 222.335 128.959 222.151Q128.968 221.967 128.986 221.784Q129.004 221.601 129.031 221.419Q129.058 221.236 129.094 221.056Q129.13 220.875 129.175 220.697Q129.22 220.518 129.273 220.342Q129.326 220.166 129.388 219.993Q129.45 219.819 129.521 219.649Q129.591 219.479 129.67 219.313Q129.749 219.146 129.836 218.984Q129.922 218.822 130.017 218.664Q130.112 218.506 130.214 218.353Q130.316 218.2 130.426 218.052Q130.535 217.904 130.652 217.762Q130.769 217.619 130.893 217.483Q131.016 217.346 131.146 217.216Q131.277 217.086 131.413 216.962Q131.549 216.839 131.692 216.722Q131.834 216.605 131.982 216.496Q132.13 216.386 132.283 216.284Q132.436 216.181 132.594 216.087Q132.752 215.992 132.914 215.905Q133.076 215.819 133.243 215.74Q133.409 215.661 133.579 215.591Q133.749 215.52 133.923 215.458Q134.096 215.396 134.272 215.343Q134.448 215.289 134.627 215.245Q134.806 215.2 134.986 215.164Q135.167 215.128 135.349 215.101Q135.531 215.074 135.714 215.056Q135.897 215.038 136.081 215.029Q136.265 215.02 136.449 215.02Z" id="矩形-2" fill="#FFFFFF" fill-rule="evenodd" stroke="none" />
      <path d="M136.449 252.02L180.451 252.02Q180.635 252.02 180.819 252.029Q181.003 252.038 181.186 252.056Q181.369 252.074 181.551 252.101Q181.734 252.128 181.914 252.164Q182.095 252.2 182.273 252.245Q182.452 252.289 182.628 252.343Q182.804 252.396 182.977 252.458Q183.151 252.52 183.321 252.591Q183.491 252.661 183.657 252.74Q183.824 252.819 183.986 252.905Q184.148 252.992 184.306 253.087Q184.464 253.181 184.617 253.284Q184.77 253.386 184.918 253.496Q185.066 253.605 185.208 253.722Q185.351 253.839 185.487 253.962Q185.623 254.086 185.754 254.216Q185.884 254.346 186.007 254.483Q186.131 254.619 186.248 254.762Q186.365 254.904 186.474 255.052Q186.584 255.2 186.686 255.353Q186.789 255.506 186.883 255.664Q186.978 255.821 187.065 255.984Q187.151 256.146 187.23 256.313Q187.309 256.479 187.379 256.649Q187.45 256.819 187.512 256.993Q187.574 257.166 187.627 257.342Q187.681 257.518 187.725 257.697Q187.77 257.875 187.806 258.056Q187.842 258.236 187.869 258.419Q187.896 258.601 187.914 258.784Q187.932 258.967 187.941 259.151Q187.95 259.335 187.95 259.519L187.95 259.521Q187.95 259.705 187.941 259.889Q187.932 260.073 187.914 260.256Q187.896 260.439 187.869 260.621Q187.842 260.803 187.806 260.984Q187.77 261.164 187.725 261.343Q187.681 261.522 187.627 261.698Q187.574 261.874 187.512 262.047Q187.45 262.221 187.379 262.391Q187.309 262.561 187.23 262.727Q187.151 262.893 187.065 263.056Q186.978 263.218 186.883 263.376Q186.789 263.534 186.686 263.687Q186.584 263.84 186.474 263.988Q186.365 264.136 186.248 264.278Q186.131 264.421 186.007 264.557Q185.884 264.693 185.754 264.823Q185.623 264.954 185.487 265.077Q185.351 265.201 185.208 265.318Q185.066 265.434 184.918 265.544Q184.77 265.654 184.617 265.756Q184.464 265.858 184.306 265.953Q184.148 266.048 183.986 266.134Q183.824 266.221 183.657 266.3Q183.491 266.379 183.321 266.449Q183.151 266.52 182.977 266.582Q182.804 266.644 182.628 266.697Q182.452 266.75 182.273 266.795Q182.095 266.84 181.914 266.876Q181.734 266.912 181.551 266.939Q181.369 266.966 181.186 266.984Q181.003 267.002 180.819 267.011Q180.635 267.02 180.451 267.02L136.449 267.02Q136.265 267.02 136.081 267.011Q135.897 267.002 135.714 266.984Q135.531 266.966 135.349 266.939Q135.167 266.912 134.986 266.876Q134.806 266.84 134.627 266.795Q134.448 266.75 134.272 266.697Q134.096 266.644 133.923 266.582Q133.749 266.52 133.579 266.449Q133.409 266.379 133.243 266.3Q133.076 266.221 132.914 266.134Q132.752 266.048 132.594 265.953Q132.436 265.858 132.283 265.756Q132.13 265.654 131.982 265.544Q131.834 265.434 131.692 265.318Q131.549 265.201 131.413 265.077Q131.277 264.954 131.146 264.823Q131.016 264.693 130.893 264.557Q130.769 264.421 130.652 264.278Q130.535 264.136 130.426 263.988Q130.316 263.84 130.214 263.687Q130.112 263.534 130.017 263.376Q129.922 263.218 129.836 263.056Q129.749 262.893 129.67 262.727Q129.591 262.561 129.521 262.391Q129.45 262.221 129.388 262.047Q129.326 261.874 129.273 261.698Q129.22 261.522 129.175 261.343Q129.13 261.164 129.094 260.984Q129.058 260.803 129.031 260.621Q129.004 260.439 128.986 260.256Q128.968 260.073 128.959 259.889Q128.95 259.705 128.95 259.521L128.95 259.519Q128.95 259.335 128.959 259.151Q128.968 258.967 128.986 258.784Q129.004 258.601 129.031 258.419Q129.058 258.236 129.094 258.056Q129.13 257.875 129.175 257.697Q129.22 257.518 129.273 257.342Q129.326 257.166 129.388 256.992Q129.45 256.819 129.521 256.649Q129.591 256.479 129.67 256.313Q129.749 256.146 129.836 255.984Q129.922 255.822 130.017 255.664Q130.112 255.506 130.214 255.353Q130.316 255.2 130.426 255.052Q130.535 254.904 130.652 254.762Q130.769 254.619 130.893 254.483Q131.016 254.346 131.146 254.216Q131.277 254.086 131.413 253.962Q131.549 253.839 131.692 253.722Q131.834 253.605 131.982 253.496Q132.13 253.386 132.283 253.284Q132.436 253.181 132.594 253.087Q132.752 252.992 132.914 252.905Q133.076 252.819 133.243 252.74Q133.409 252.661 133.579 252.591Q133.749 252.52 133.923 252.458Q134.096 252.396 134.272 252.343Q134.448 252.289 134.627 252.245Q134.806 252.2 134.986 252.164Q135.167 252.128 135.349 252.101Q135.531 252.074 135.714 252.056Q135.897 252.038 136.081 252.029Q136.265 252.02 136.449 252.02Z" id="矩形-3" fill="#FFFFFF" fill-rule="evenodd" stroke="none" />
    </g>
  </g>
</svg>