<?xml version="1.0" encoding="utf-8"?>
<svg viewBox="0 0 200 200" version="1.1" xmlns:xlink="http://www.w3.org/1999/xlink" xmlns="http://www.w3.org/2000/svg">
  <defs>
    <path d="M0 0L200 0L200 200L0 200L0 0Z" id="path_1" />
    <clipPath id="mask_1">
      <use xlink:href="#path_1" />
    </clipPath>
  </defs>
  <g id="租赁">
    <path d="M0 0L200 0L200 200L0 200L0 0Z" id="背景" fill="#FFFFFF" fill-opacity="0" fill-rule="evenodd" stroke="none" />
    <g clip-path="url(#mask_1)">
      <path d="M199.981 100C200.981 161.988 161.988 200.981 100 199.981C38.0117 200.981 -0.981021 161.988 0.0187933 100C-0.981012 38.0117 38.0117 -0.981016 100 0.0187965C161.988 -0.981016 200.981 38.0117 199.981 100L199.981 100Z" id="形状" fill="#EC6B77" stroke="none" />
      <path d="M199.481 110.498C196.482 66.5063 166.488 39.5114 119.996 40.0113C70.5056 39.0115 39.0115 70.5056 40.0113 119.996C39.0115 166.488 66.5063 196.482 110.498 199.481C162.988 196.482 196.482 162.988 199.481 110.498L199.481 110.498Z" id="形状" fill="#EB6368" stroke="none" />
      <path d="M198.482 122.996C192.483 96.0008 171.487 79.5039 139.993 80.0038C102.999 79.5039 79.5039 102.999 80.0038 139.993C79.5039 170.987 96.0008 192.483 122.996 198.482C163.988 191.483 191.483 163.988 198.482 122.996L198.482 122.996Z" id="形状" fill="#EB5C5A" stroke="none" />
      <path d="M194.982 137.993C188.483 126.495 176.486 119.996 159.989 119.996C134.993 119.496 119.496 134.993 119.996 159.989C119.496 175.986 126.495 188.483 137.993 194.982C165.488 186.984 186.984 165.488 194.982 137.993L194.982 137.993Z" id="形状" fill="#EA4242" fill-opacity="0.39" stroke="none" />
      <path d="M124.995 73.0051L138.493 73.0051C140.992 73.0051 142.992 71.0055 142.992 68.5059C142.992 66.0064 140.992 64.0068 138.493 64.0068L124.995 64.0068C122.496 64.0068 120.496 66.0064 120.496 68.5059C119.996 71.0055 121.996 73.0051 124.995 73.0051L124.995 73.0051Z" id="形状" fill="#FFFFFF" stroke="none" />
      <path d="M147.991 132.994L139.993 132.994L139.993 124.995C139.993 122.496 137.993 120.496 135.493 120.496C132.994 120.496 130.994 122.496 130.994 124.995L130.994 137.493C130.994 139.993 132.994 141.992 135.493 141.992L147.991 141.992C150.491 141.992 152.49 139.993 152.49 137.493C152.49 134.993 150.491 132.994 147.991 132.994L147.991 132.994ZM96.5007 148.491L64.0068 148.491L64.0068 91.0017L145.991 91.0017C153.49 91.0017 159.489 85.0028 159.489 77.5042L159.489 56.5082C159.489 49.0096 153.49 43.0107 145.991 43.0107L59.0077 43.0107C51.5091 43.0107 45.5103 49.0096 45.5103 56.5082L45.5103 77.5042C45.5103 83.5031 49.5095 89.0021 55.0085 90.5018L55.0085 148.991L50.5093 148.991C48.0098 148.991 46.0102 150.99 46.0102 153.49C46.0102 155.989 48.0098 157.989 50.5093 157.989L97.0006 157.989C99.5001 157.989 101.5 155.989 101.5 153.49C101.5 150.99 99.0002 148.491 96.5007 148.491L96.5007 148.491ZM54.5086 56.5082C54.5086 54.0087 56.5082 52.009 59.0077 52.009L146.491 52.009C148.991 52.009 150.99 54.0087 150.99 56.5082L150.99 77.5042C150.99 80.0038 148.991 82.0034 146.491 82.0034L59.0077 82.0034C56.5082 82.0034 54.5086 80.0038 54.5086 77.5042L54.5086 56.5082L54.5086 56.5082Z" id="形状" fill="#FFFFFF" fill-rule="evenodd" stroke="none" />
      <path d="M136.993 103.999C119.496 103.999 105.499 117.997 105.499 135.493C105.499 152.99 119.496 166.987 136.993 166.987C154.49 166.987 168.487 152.99 168.487 135.493C168.487 117.997 154.49 103.999 136.993 103.999L136.993 103.999ZM136.993 157.989C124.495 157.989 114.497 147.991 114.497 135.493C114.497 122.996 124.495 112.998 136.993 112.998C149.491 112.998 159.489 122.996 159.489 135.493C159.489 147.991 149.491 157.989 136.993 157.989L136.993 157.989Z" id="形状" fill="#FFFFFF" fill-rule="evenodd" stroke="none" />
    </g>
  </g>
</svg>