<?xml version="1.0" standalone="no"?><!DOCTYPE svg PUBLIC "-//W3C//DTD SVG 1.1//EN" "http://www.w3.org/Graphics/SVG/1.1/DTD/svg11.dtd"><svg t="1725710047761" class="icon" viewBox="0 0 1024 1024" version="1.1" xmlns="http://www.w3.org/2000/svg" p-id="1117" xmlns:xlink="http://www.w3.org/1999/xlink" width="200" height="200"><path d="M1023.904036 512.000128c5.119039 317.380412-194.523478 517.022929-511.90389 511.90389-317.380412 5.119039-517.022929-194.523478-511.90389-511.90389C-5.022783 194.619716 194.619734-5.022801 512.000146 0.096238c317.380412-5.119039 517.022929 194.523478 511.90389 511.90389z" fill="#4279F5" p-id="1118"></path><path d="M1021.344517 565.750036C1005.9874 340.512325 852.416233 202.298274 614.380924 204.857794c-253.392426-5.119039-414.642151 156.130686-409.523112 409.523112-5.119039 238.035309 135.654531 391.606476 360.892242 406.963593 268.749542-15.357117 440.237345-186.84492 455.594463-455.594463z" fill="#3F6FF5" p-id="1119"></path><path d="M1016.225478 629.738023c-30.714233-138.21405-138.21405-222.678192-299.463776-220.118673-189.404439-2.559519-309.701853 117.737895-307.142334 307.142334-2.559519 158.690206 81.904622 268.749542 220.118673 299.463776 209.880595-35.833272 350.654165-176.606842 386.487437-386.487437z" fill="#3C67F5" p-id="1120"></path><path d="M998.308842 706.523606c-33.273753-58.868947-94.70222-92.1427-179.166362-92.1427-127.975973-2.559519-207.321075 76.785584-204.761556 204.761556-2.559519 81.904622 33.273753 145.892609 92.1427 179.166362 140.77357-40.952311 250.832906-151.011648 291.785218-291.785218z" fill="#395EF5" p-id="1121"></path><path d="M634.85708 844.737657h-245.713868c-66.547506 0-110.059336-15.357117-138.21405-48.63087-25.595195-30.714233-33.273753-74.226064-25.595194-130.535492l23.035675-271.309062v-2.559519c15.357117-76.785584 71.666545-102.380778 112.618855-102.380778h299.463776c43.511831 0 94.70222 25.595195 112.618856 102.380778v2.559519l23.035675 273.868581c7.678558 51.190389-2.559519 94.70222-28.154714 125.416454-25.595195 33.273753-74.226064 51.190389-133.095011 51.190389zM294.440993 399.381272l-23.035675 271.309062c-7.678558 43.511831-2.559519 76.785584 15.357116 94.70222 17.916636 20.476156 51.190389 30.714233 102.380778 30.714233h245.713868c33.273753 0 76.785584-5.119039 99.821258-35.833272 17.916636-20.476156 23.035675-51.190389 17.916636-89.583181l-23.035675-273.868581c-10.238078-40.952311-35.833272-63.987986-66.547505-63.987987H363.548018c-15.357117 2.559519-56.309428 7.678558-69.107025 66.547506zM422.416965 273.964819h-5.119039c-12.797597-2.559519-20.476156-15.357117-17.916636-28.154714C409.619368 192.060197 458.250238 153.667405 512.000146 153.667405c53.749908 0 99.821259 38.392792 110.059336 89.583181 2.559519 12.797597-5.119039 25.595195-17.916636 28.154714-12.797597 2.559519-25.595195-5.119039-28.154714-17.916636-5.119039-30.714233-33.273753-53.749908-66.547505-53.749909s-58.868947 23.035675-66.547506 53.749909c2.559519 12.797597-7.678558 20.476156-20.476156 20.476155z" fill="#FFFFFF" p-id="1122"></path><path d="M512.000146 696.285528c-48.63087 0-92.1427-23.035675-120.297414-63.987986-7.678558-10.238078-5.119039-25.595195 5.119039-33.273753 10.238078-7.678558 25.595195-5.119039 33.273753 5.119039 17.916636 25.595195 48.63087 43.511831 79.345103 43.511831 33.273753 0 61.428467-15.357117 79.345103-43.511831 7.678558-10.238078 20.476156-12.797597 33.273752-5.119039 10.238078 7.678558 12.797597 20.476156 5.119039 33.273753-23.035675 40.952311-66.547506 63.987986-115.178375 63.987986z" fill="#FFFFFF" p-id="1123"></path></svg>