<?xml version="1.0" encoding="utf-8"?>
<svg viewBox="0 0 200.00003 200.00003" version="1.1" xmlns:xlink="http://www.w3.org/1999/xlink" xmlns="http://www.w3.org/2000/svg">
  <defs>
    <path d="M0 0L200 0L200 200L0 200L0 0Z" id="path_1" />
    <clipPath id="mask_1">
      <use xlink:href="#path_1" />
    </clipPath>
  </defs>
  <g id="导购">
    <path d="M0 0L200 0L200 200L0 200L0 0Z" id="背景" fill="#FFFFFF" fill-opacity="0" fill-rule="evenodd" stroke="none" />
    <g clip-path="url(#mask_1)">
      <path d="M199.981 100C200.981 161.988 161.988 200.981 100 199.981C38.0117 200.981 -0.981021 161.988 0.0187933 100C-0.981012 38.0117 38.0117 -0.981016 100 0.0187965C161.988 -0.981016 200.981 38.0117 199.981 100L199.981 100Z" id="形状" fill="#77D4A0" stroke="none" />
      <path d="M199.481 110.498C196.482 66.5063 166.488 39.5114 119.996 40.0113C70.5056 39.0115 39.0115 70.5056 40.0113 119.996C39.0115 166.488 66.5063 196.482 110.498 199.481C162.988 196.482 196.482 162.988 199.481 110.498L199.481 110.498Z" id="形状" fill="#70CF9F" stroke="none" />
      <path d="M198.482 122.996C192.483 96.0008 171.487 79.5039 139.993 80.0038C102.999 79.5039 79.5039 102.999 80.0038 139.993C79.5039 170.987 96.0008 192.483 122.996 198.482C163.988 191.483 191.483 163.988 198.482 122.996L198.482 122.996Z" id="形状" fill="#69C89A" stroke="none" />
      <path d="M194.982 137.993C188.483 126.495 176.486 119.996 159.989 119.996C134.993 119.496 119.496 134.993 119.996 159.989C119.496 175.986 126.495 188.483 137.993 194.982C165.488 186.984 186.984 165.488 194.982 137.993L194.982 137.993Z" id="形状" fill="#62C296" stroke="none" />
      <path d="M102 104.999C83.5031 104.999 68.006 90.0019 68.006 71.0055C68.006 52.5089 83.0032 37.0119 102 37.0119C120.496 37.0119 135.993 52.009 135.993 71.0055C135.493 89.502 120.496 104.999 102 104.999L102 104.999ZM102 45.5103C88.0023 45.5103 76.5044 57.0081 76.5044 71.0055C76.5044 85.0028 88.0023 96.5007 102 96.5007C115.997 96.5007 127.495 85.0028 127.495 71.0055C127.495 57.0081 115.497 45.5103 102 45.5103L102 45.5103Z" id="形状" fill="#FFFFFF" fill-rule="evenodd" stroke="none" />
      <path d="M154.99 162.488C152.49 162.488 150.491 160.489 150.491 157.989L150.491 148.991C150.491 132.994 137.493 119.996 121.496 119.996L82.0034 119.996C66.0064 119.996 53.0088 132.994 53.0088 148.991L53.0088 157.989C53.0088 160.489 51.0092 162.488 48.5097 162.488C46.0102 162.488 44.0105 160.489 44.0105 157.989L44.0105 148.991C44.0105 128.495 61.0073 111.498 81.5035 111.498L120.996 111.498C141.492 111.498 158.489 128.495 158.489 148.991L158.489 157.989C158.989 160.489 156.989 162.488 154.99 162.488L154.99 162.488Z" id="形状" fill="#FFFFFF" stroke="none" />
    </g>
  </g>
</svg>